<?xml version="1.0" encoding="utf-8"?>
<!-- Generator: Adobe Illustrator 21.1.0, SVG Export Plug-In . SVG Version: 6.00 Build 0)  -->
<svg version="1.1" id="Layer_1" xmlns="http://www.w3.org/2000/svg" xmlns:xlink="http://www.w3.org/1999/xlink" x="0px" y="0px"
	 viewBox="0 0 504 300" style="enable-background:new 0 0 504 300;" xml:space="preserve">
<style type="text/css">
	.st0{fill:#3498db;}
</style>
<g>
	<g>
		<path class="st0" d="M252.3,136.6c37.2,0,67-30,67-67c0-37-29.9-67-67-67c-36.9,0-66.9,30-66.9,67
			C185.4,106.6,215.3,136.6,252.3,136.6z"/>
		<path class="st0" d="M306,147.5H198.7c-19.2,0-34.9,17.6-34.9,39.2v107.9c0,1.2,0.6,2.2,0.7,3.5h175.8c0.1-1.2,0.6-2.3,0.6-3.5
			V186.7C340.9,165.1,325.2,147.5,306,147.5z"/>
		<path class="st0" d="M432.6,168.6c29.8,0,53.8-24,53.8-53.7s-23.9-53.7-53.8-53.7c-29.6,0-53.6,24.1-53.6,53.7
			C378.9,144.5,403,168.6,432.6,168.6z"/>
		<path class="st0" d="M475.7,177.3h-86c-15.4,0-28.1,14.1-28.1,31.5v86.4c0,0.9,0.5,1.8,0.5,2.8h141c0.1-1,0.5-1.9,0.5-2.8v-86.4
			C503.7,191.4,491.1,177.3,475.7,177.3z"/>
		<path class="st0" d="M72,168.6c29.8,0,53.7-24,53.7-53.7S101.8,61.2,72,61.2c-29.6,0-53.6,24.1-53.6,53.7S42.4,168.6,72,168.6
			L72,168.6z"/>
		<path class="st0" d="M115.1,177.3H29c-15.4,0-28,14.1-28,31.5v86.4c0,0.9,0.5,1.8,0.5,2.8h141c0.1-1,0.5-1.9,0.5-2.8v-86.4
			C143.1,191.4,130.5,177.3,115.1,177.3z"/>
	</g>
</g>
</svg>
