<?xml version="1.0" encoding="utf-8"?>
<!-- Generator: Adobe Illustrator 21.1.0, SVG Export Plug-In . SVG Version: 6.00 Build 0)  -->
<svg version="1.1" id="Layer_1" xmlns="http://www.w3.org/2000/svg" xmlns:xlink="http://www.w3.org/1999/xlink" x="0px" y="0px"
	 viewBox="0 0 2000 2000" style="enable-background:new 0 0 2000 2000;" xml:space="preserve">
<style type="text/css">
	.st0{fill:url(#SVGID_1_);}
	.st1{display:none;fill:#FFFFFF;enable-background:new    ;}
	.st2{font-family:'ArialMT';}
	.st3{font-size:750px;}
	.st4{display:none;}
	.st5{display:inline;}
	.st6{fill:none;stroke:#FFFFFF;stroke-width:26;stroke-miterlimit:10;}
	.st7{fill:#FFFFFF;}
</style>
<g>
	
		<linearGradient id="SVGID_1_" gradientUnits="userSpaceOnUse" x1="297.0028" y1="974.9902" x2="1703.0164" y2="974.9902" gradientTransform="matrix(-0.7071 -0.7071 -0.7071 0.7071 2396.5222 1042.6912)">
		<stop  offset="0" style="stop-color:#DCE35B"/>
		<stop  offset="0" style="stop-color:#00AA52"/>
		<stop  offset="1" style="stop-color:#45B649"/>
	</linearGradient>
	<circle class="st0" cx="1000" cy="1025" r="703"/>
</g>
<text transform="matrix(1 0 0 1 556 1240)" class="st1 st2 st3">{...}</text>
<g class="st4">
	<g class="st5">
		<path class="st6" d="M1136.3,999.9c63.6-28.8,73-248.2,35.5-312.8c-49-84.3-281.9-67.4-355.4-7.1c-8.4,29.9-7.6,84.3-7.2,127.5
			H1040v20.2H809.3c0,0.3-102.7,0.6-102.7,0.6c-177.2,0-173.5,384.8,60.3,384.8c0,0,8.6-85.2,23.6-127.9
			C836.9,953.4,1031.8,1047.3,1136.3,999.9z M894.7,776.3c-26.6,0-48.2-21.6-48.2-48.2c0-26.6,21.6-48.2,48.2-48.2
			c26.7,0,48.2,21.6,48.2,48.2S921.3,776.3,894.7,776.3z"/>
		<path class="st6" d="M1225.8,836.4c0,0-6.1,85.3-21.2,127.9c-46.4,131.8-241.2,37.9-345.9,85.3c-63.5,28.8-73.1,248.2-35.5,312.8
			c48.9,84.4,281.8,67.5,355.4,7.1c8.4-29.9,7.6-84.2,7.2-127.4H954.9v-20.2h230.8c0-0.3,113.7-0.6,113.7-0.6
			C1462.8,1221.3,1477.4,836.4,1225.8,836.4z M1092.2,1265c26.6,0,48.2,21.6,48.2,48.2s-21.6,48.2-48.2,48.2s-48.2-21.6-48.2-48.2
			C1044,1286.5,1065.5,1265,1092.2,1265z"/>
	</g>
</g>
<path class="st7" d="M1079.3,788.5c-14.5,0-26.1,11.7-26.1,26c0,14.4,11.7,26.1,26.1,26.1s26.1-11.7,26.1-26.1
	C1105.4,800.1,1093.7,788.5,1079.3,788.5z M1279.4,871.4c-23,0-43.2,7.8-56.5,20.4c0-0.5-0.1-1-0.2-1.5
	c-8.9-57.1-40.6-107.4-88.3-141.5l49.2-77.9c6-9.6,7.9-21.4,5-32.3c-3-11.2-10.7-20.9-21.2-26.4c-6.5-3.4-13.7-5.2-20.9-5.2
	c-15.4,0-29.2,7.5-37.2,20.1l-53.8,85.4c-17.9-4.4-36.1-6.7-54.3-6.7c-18.5,0-36.9,2.2-55,6.7l-54-85.4
	c-7.9-12.6-21.8-20.2-37.2-20.2c-7.3,0-14.4,1.8-20.8,5.1c-10.7,5.6-18.4,15.3-21.4,26.5c-2.9,10.9-1.1,22.8,5,32.4l49.3,78.1
	c-47.4,34-79,84.2-87.9,141.1c-0.1,0.4-0.1,0.7-0.1,1c-13.4-13.4-34.3-21.9-58.2-21.9c-41.3,0-73.7,25.5-73.7,58v197.1
	c0,32.5,32.4,58.1,73.7,58.1c24.6,0,46.1-9,59.4-23.2c0,19.3,0,35.3,0,45.8c0,64.9,31.4,91.4,64.6,101.3v79.3
	c0,32.1,32.2,57.3,73.3,57.3c41.2,0,73.4-25.2,73.4-57.3V1312l17.3,0.1v73.6c0,32.1,32.2,57.3,73.4,57.3s73.4-25.2,73.4-57.3v-79.2
	c42.5-12.8,65.6-47.7,65.6-100.5v-47.5c13.3,13.3,34.2,21.8,58,21.8c41.2,0,73.4-25.2,73.4-57.3V928.7
	C1352.8,896.6,1320.5,871.4,1279.4,871.4z M769.2,1124.4c0,17.9-21.6,32.4-48.2,32.4c-26.5,0-48.1-14.5-48.1-32.4V927.3
	c0-17.9,21.6-32.4,48.1-32.4c26.6,0,48.2,14.5,48.2,32.4V1124.4z M1195.8,1206.1c0,47.3-20.1,74.7-65.6,79.5v100.1
	c0,17.5-21.5,31.7-47.8,31.7c-26.4,0-47.8-14.3-47.8-31.7v-99.1c-22.5,0-46-0.1-68.5-0.2v99.3c0,17.5-21.4,31.7-47.8,31.7
	c-26.4,0-47.8-14.3-47.8-31.7v-100.4c-44.3-4.6-64.6-29.5-64.6-80.3c0-56.3,0.4-275.9,0.4-275.9h389.5
	C1195.8,929.1,1195.8,1153.8,1195.8,1206.1z M804.5,894.2c9.3-59.1,46.7-109,98.5-137.5c-0.7-0.7-1.5-1.1-2-1.9l-61.6-97.6
	c-5-7.8-2-17.9,6.6-22.5c2.8-1.5,5.9-2.2,8.9-2.2c6.2,0,12.2,2.9,15.5,8.2l61.7,97.7c0.9,1.4,1.2,3,1.6,4.5
	c20.9-7.3,43.6-11.5,67.3-11.5c23.4,0,45.8,4.2,66.6,11.4c0.4-1.5,0.7-3,1.6-4.4l61.6-97.7c3.3-5.3,9.3-8.2,15.5-8.2
	c3,0,6.1,0.7,8.9,2.2c8.6,4.6,11.6,14.6,6.6,22.5l-61.6,97.6c-0.4,0.7-1.2,1-1.8,1.6c52,28.4,89.7,78.4,98.9,137.7
	C1197.3,894.2,804.5,894.2,804.5,894.2z M1327.2,1123c0,17.5-21.4,31.7-47.8,31.7s-47.8-14.2-47.8-31.7V928.7
	c0-17.5,21.4-31.7,47.8-31.7s47.8,14.2,47.8,31.7V1123z M920.8,788.5c-14.4,0-26.1,11.7-26.1,26c0,14.4,11.7,26.1,26.1,26.1
	c14.4,0,26.1-11.7,26.1-26.1C946.9,800.1,935.2,788.5,920.8,788.5z"/>
</svg>
