<?xml version="1.0" encoding="utf-8"?>
<!-- Generator: Adobe Illustrator 21.1.0, SVG Export Plug-In . SVG Version: 6.00 Build 0)  -->
<svg version="1.1" id="Layer_1" xmlns="http://www.w3.org/2000/svg" xmlns:xlink="http://www.w3.org/1999/xlink" x="0px" y="0px"
	 viewBox="0 0 2000 2000" style="enable-background:new 0 0 2000 2000;" xml:space="preserve">
<style type="text/css">
	.st0{fill:url(#SVGID_1_);}
	.st1{fill:#FFFFFF;}
</style>
<g>
	<linearGradient id="SVGID_1_" gradientUnits="userSpaceOnUse" x1="297" y1="1025" x2="1703" y2="1025">
		<stop  offset="0" style="stop-color:#FF512F"/>
		<stop  offset="1" style="stop-color:#DD2476"/>
	</linearGradient>
	<circle class="st0" cx="1000" cy="1025" r="703"/>
</g>
<g>
	<g>
		<path class="st1" d="M1214.3,628.3c-57.6-20.8-133.7-32.3-214.3-32.3c-80.6,0-156.8,11.5-214.4,32.3c-82.4,29.8-99.8,68-99.8,94.8
			v603.9c0,26.8,17.4,65,99.8,94.8c57.6,20.8,133.7,32.3,214.3,32.3c47.3,0.2,94.6-4.1,141.1-12.7c109.9-21.1,173-62.8,173-114.4
			V723.1C1314,696.3,1296.7,658.1,1214.3,628.3z M800,667.9c53.1-19.2,124.1-29.8,199.9-29.8s146.8,10.6,199.9,29.8
			c53,19.2,71.9,41.1,71.9,55.1c0,14.1-18.9,35.9-71.9,55.1v0c-53.1,19.2-124.1,29.8-199.9,29.8S853.1,797.4,800,778.2
			c-53-19.2-71.9-41-71.9-55.1C728.1,709,747,687.1,800,667.9z M1271.9,1326.9c0,11.4-12,25-32.8,37.3c-25.4,15-62.1,27.3-106,35.7
			c-43.9,8.1-88.5,12.1-133.1,11.9c-75.9,0-147-10.6-200-29.8c-53-19.2-71.9-41.1-71.9-55.1v-135.8c18,11.8,37.3,21.3,57.6,28.3
			c57.6,20.8,133.7,32.3,214.3,32.3s156.8-11.5,214.4-32.3c20.3-7.1,39.6-16.6,57.6-28.3V1326.9L1271.9,1326.9z M1271.9,1124.7
			c0,14.1-19,36-71.9,55.1c-53.1,19.2-124.1,29.8-200,29.8s-147-10.6-200-29.8c-53-19.2-72-41.1-72-55.1V990.3
			c18,11.8,37.3,21.3,57.6,28.3c57.6,20.8,133.7,32.3,214.3,32.3s156.8-11.5,214.4-32.3c20.3-7.1,39.6-16.6,57.6-28.3V1124.7
			L1271.9,1124.7z M1271.9,923.9c0,14.1-19,36-71.9,55.1v0c-53.1,19.2-124.1,29.8-200,29.8s-147-10.6-200-29.8
			c-53-19.2-72-41.1-72-55.1V789.5c18,11.8,37.3,21.3,57.6,28.3c57.6,20.8,133.7,32.3,214.3,32.3c80.6,0,156.8-11.5,214.4-32.3
			c20.3-7.1,39.6-16.6,57.6-28.3V923.9z"/>
	</g>
</g>
<g>
	<g>
		<path class="st1" d="M1048.4,904.8h-97c-11.6,0-21.1,9.4-21.1,21.1c0,11.6,9.4,21.1,21.1,21.1h97c11.6,0,21.1-9.4,21.1-21.1
			C1069.5,914.3,1060,904.8,1048.4,904.8z"/>
	</g>
</g>
<g>
	<g>
		<path class="st1" d="M1048.4,1103h-97c-11.6,0-21.1,9.4-21.1,21.1c0,11.6,9.4,21.1,21.1,21.1h97c11.6,0,21.1-9.4,21.1-21.1
			C1069.5,1112.4,1060,1103,1048.4,1103z"/>
	</g>
</g>
<g>
	<g>
		<path class="st1" d="M1048.4,1307.5h-97c-11.6,0-21.1,9.4-21.1,21.1c0,11.6,9.4,21.1,21.1,21.1h97c11.6,0,21.1-9.4,21.1-21.1
			C1069.5,1316.9,1060,1307.5,1048.4,1307.5z"/>
	</g>
</g>
</svg>
