<?xml version="1.0" encoding="utf-8"?>
<!-- Generator: Adobe Illustrator 21.1.0, SVG Export Plug-In . SVG Version: 6.00 Build 0)  -->
<svg version="1.1" id="Layer_1" xmlns="http://www.w3.org/2000/svg" xmlns:xlink="http://www.w3.org/1999/xlink" x="0px" y="0px"
	 viewBox="0 0 2000 2000" style="enable-background:new 0 0 2000 2000;" xml:space="preserve">
<style type="text/css">
	.st0{fill:url(#SVGID_1_);}
	.st1{fill:#FFFFFF;}
</style>
<g>
	<linearGradient id="SVGID_1_" gradientUnits="userSpaceOnUse" x1="297" y1="1025" x2="1703" y2="1025">
		<stop  offset="0" style="stop-color:#E52D27"/>
		<stop  offset="1" style="stop-color:#B31217"/>
	</linearGradient>
	<circle class="st0" cx="1000" cy="1025" r="703"/>
</g>
<g id="XMLID_7_">
	<path id="XMLID_8_" class="st1" d="M976,728c-39.9,28.1-85.1,59.9-109.4,112.5c-42.1,91.8,86.1,192,91.6,196.2
		c1.3,1,2.8,1.5,4.3,1.5c1.6,0,3.2-0.6,4.5-1.7c2.5-2.1,3.3-5.7,1.7-8.7c-0.5-0.9-46.5-90.3-44.8-154.4c0.6-22.3,31.9-47.7,65-74.5
		c30.3-24.6,64.7-52.4,84.8-85c44.1-71.7-4.9-142.2-5.4-142.9c-1.9-2.7-5.5-3.7-8.6-2.4c-3.1,1.4-4.8,4.7-4.1,8
		c0.1,0.5,9.6,47.1-16.9,95.2C1027.9,691.6,1003.9,708.5,976,728z"/>
	<path id="XMLID_9_" class="st1" d="M1144.2,759.7c2.8-2.1,3.6-6,1.9-9.1c-1.7-3.1-5.4-4.4-8.7-3.2c-6.8,2.6-166,64-166,138.1
		c0,51.1,21.8,78.1,37.8,97.9c6.3,7.7,11.7,14.4,13.4,20.1c5,16.4-6.9,46.1-11.8,56.2c-1.4,2.9-0.7,6.4,1.7,8.5
		c1.3,1.1,3,1.7,4.6,1.7c1.4,0,2.8-0.4,4-1.3c2.7-1.9,66.9-47.3,55.4-102c-4.3-20.8-14.5-36-23.5-49.4c-14-20.8-24-35.7-8.7-63.4
		C1062.2,821.6,1143.4,760.3,1144.2,759.7z"/>
	<path id="XMLID_10_" class="st1" d="M729.7,1071.1c-2.7,8.2-1.4,16.3,3.7,23.5c17.3,24,78.4,37.2,172.2,37.2c0,0,0,0,0,0
		c12.7,0,26.1-0.2,39.9-0.7c149.9-5.4,205.5-52.1,207.8-54.1c2.5-2.2,3.2-5.8,1.6-8.7c-1.6-2.9-4.9-4.4-8.1-3.5
		c-52.8,14.4-151.4,19.5-219.8,19.5c-76.5,0-115.5-5.5-125-9.6c4.9-6.7,35.1-18.7,72.5-26.1c3.6-0.7,6-4,5.7-7.6
		c-0.4-3.6-3.4-6.4-7-6.4C851.2,1034.6,741.2,1036.3,729.7,1071.1z"/>
	<path id="XMLID_11_" class="st1" d="M1231.4,1023c-30.9,0-60.2,15.5-61.5,16.2c-2.9,1.5-4.3,4.8-3.5,8c0.8,3.1,3.6,5.4,6.9,5.4
		c0.7,0,66,0.5,71.9,37.8c5.2,32.2-61.8,84.3-88.1,101.7c-2.8,1.9-3.9,5.5-2.6,8.6c1.1,2.7,3.7,4.3,6.5,4.3c0.5,0,1-0.1,1.5-0.2
		c6.2-1.3,152.5-33.6,137-118.7C1290,1034,1257.2,1023,1231.4,1023z"/>
	<path id="XMLID_12_" class="st1" d="M1131,1181.6c0.5-2.7-0.6-5.5-2.9-7.1l-35.1-24.6c-1.7-1.2-3.9-1.6-5.9-1
		c-0.4,0.1-37,9.7-90.3,15.6c-21.1,2.4-44.8,3.6-68.5,3.6c-53.2,0-88-6.3-93.1-10.8c-0.7-1.3-0.5-1.9-0.3-2.2c0.9-2.6,5.9-5.6,9-6.8
		c3.5-1.3,5.4-5.1,4.3-8.7c-1.1-3.6-4.8-5.7-8.4-4.8c-35.2,8.5-52.4,20.4-51.1,35.3c2.2,26.5,63.5,40,115.3,43.6
		c7.5,0.5,15.5,0.8,23.9,0.8c0,0,0,0,0,0c86.2,0,196.6-27,197.7-27.3C1128.5,1186.5,1130.5,1184.4,1131,1181.6z"/>
	<path id="XMLID_13_" class="st1" d="M866.6,1238.4c2.7-1.7,3.8-5,2.9-8c-0.9-3-3.8-5-6.9-5c-4.7,0.1-46.1,2-49,28.4
		c-0.9,7.9,1.4,15.1,6.7,21.4c14.9,17.6,55,28.1,122.7,32c8,0.5,16.1,0.7,24.2,0.7c86.1,0,144-26.9,146.4-28.1c2.4-1.1,3.9-3.4,4-6
		c0.1-2.6-1.2-5.1-3.4-6.4l-44.3-27.1c-1.5-0.9-3.4-1.2-5.1-0.9c-0.3,0.1-28.4,5.9-70.9,11.7c-8,1.1-18.1,1.6-29.9,1.6
		c-42.4,0-89.6-6.9-98.7-11.5C865.2,1240.4,865.4,1239.4,866.6,1238.4z"/>
	<path id="XMLID_14_" class="st1" d="M927,1389.3c197.1-0.2,302.9-35.2,323.3-57.3c7.2-7.8,8-15.2,7.4-20
		c-1.5-11.9-12.3-19.1-13.6-19.9c-3-1.9-6.9-1.4-9.2,1.3c-2.3,2.7-2.4,6.6,0,9.2c1.2,1.6,2,4.3-1.7,7.9
		c-8.1,7.6-90.3,30.7-227.2,37.6c-18.7,1-38.4,1.5-58.4,1.5c-122.5,0-212.2-16.8-223.9-26.6c4.5-6.5,36.3-16.9,70-22.8
		c3.8-0.7,6.4-4.2,5.8-8.1c-0.6-3.8-4.1-6.4-7.9-5.9c-1,0.1-4.2,0.3-7.9,0.6c-55.6,3.4-120,11-123.3,39.6c-1,8.7,1.6,16.7,7.7,23.6
		C683,1366.8,726.2,1389.3,927,1389.3C927,1389.3,927,1389.3,927,1389.3z"/>
	<path id="XMLID_15_" class="st1" d="M1289.1,1338.2c-2.8-1.3-6.1-0.6-8.2,1.6c-0.3,0.3-29.9,31.3-119,49.5
		c-34.1,6.8-98.2,10.3-190.3,10.3c-92.4,0-180.2-3.6-181.1-3.7c-3.7-0.2-6.8,2.5-7.3,6.1c-0.5,3.6,1.8,7,5.4,7.9
		c0.9,0.2,93,21.8,218.9,21.8c60.4,0,119.2-4.9,174.7-14.6c103.5-18.1,110.8-69.5,111-71.6
		C1293.5,1342.4,1291.8,1339.5,1289.1,1338.2z"/>
</g>
</svg>
