<?xml version="1.0" encoding="utf-8"?>
<!-- Generator: Adobe Illustrator 21.1.0, SVG Export Plug-In . SVG Version: 6.00 Build 0)  -->
<svg version="1.1" id="Layer_1" xmlns="http://www.w3.org/2000/svg" xmlns:xlink="http://www.w3.org/1999/xlink" x="0px" y="0px"
	 viewBox="0 0 2000 2000" style="enable-background:new 0 0 2000 2000;" xml:space="preserve">
<style type="text/css">
	.st0{fill:#54A0FF;}
	.st1{fill:#0ABDE3;}
	.st2{fill:#2E86DE;}
	.st3{fill:#2E86DE;stroke:#2E86DE;stroke-width:2;stroke-miterlimit:10;}
</style>
<image style="display:none;overflow:visible;" width="736" height="552" xlink:href="../../../../Users/Vaishak Shetty K/Desktop/04e8da6cc71a233f27d7595fcd7efaa0.jpg"  transform="matrix(2.4647 0 0 2.4647 116 294.25)">
</image>
<path class="st0" d="M816,1137.8l-85.2,40.8c-6.4,3.1-13.8,3.1-20.2,0c-25.1-12-85.2-40.8-85.2-40.8v-123c0,0,60,28.8,85.2,40.8
	c6.4,3.1,13.8,3.1,20.2,0l85.2-40.8V1137.8z"/>
<path class="st1" d="M816,983.8l-85.2,40.8c-6.4,3.1-13.8,3.1-20.2,0c-25.1-12-85.2-40.8-85.2-40.8v-123c0,0,60,28.8,85.2,40.8
	c6.4,3.1,13.8,3.1,20.2,0l85.2-40.8V983.8z"/>
<g id="XMLID_1_">
	<path class="st2" d="M720.6,1211.4c-0.3-0.6-0.8-1-1.5-1.3l-70.8-32.8c-11.3-5.2-22.5,7.3-16,17.9l82.6,136.4
		c1.4,2.3,4.5,2,5.7,0.1c1.2,1.9,4.3,2.3,5.7-0.1l82.6-136.4c6.4-10.6-4.8-23.2-16-17.9l-70.8,32.8
		C721.5,1210.4,721,1210.8,720.6,1211.4z"/>
</g>
<path class="st2" d="M901,712l-85,38v67.8l-85.2,40.8c-6.4,3.1-13.8,3.1-20.2,0c-25.1-12-85.2-40.8-85.2-40.8V750L537,712l184-84
	L901,712z"/>
<polygon class="st2" points="585.7,770 573,833 598.3,833 "/>
<circle class="st2" cx="585.5" cy="776.5" r="8.5"/>
<line class="st3" x1="585.4" y1="772" x2="585.4" y2="723"/>
</svg>
