<?xml version="1.0" encoding="utf-8"?>
<!-- Generator: Adobe Illustrator 21.1.0, SVG Export Plug-In . SVG Version: 6.00 Build 0)  -->
<svg version="1.1" id="Layer_1" xmlns="http://www.w3.org/2000/svg" xmlns:xlink="http://www.w3.org/1999/xlink" x="0px" y="0px"
	 viewBox="0 0 2000 500" style="enable-background:new 0 0 2000 500;" xml:space="preserve">
<style type="text/css">
	.st0{fill:#54A0FF;}
	.st1{fill:#0ABDE3;}
	.st2{fill:#2E86DE;}
	.st3{fill:#2E86DE;stroke:#2E86DE;stroke-width:2;stroke-miterlimit:10;}
	.st4{fill:#3498DB;}
</style>
<path class="st0" d="M1039.3,344.8l-50.8,24.3c-3.8,1.8-8.2,1.8-12,0c-15-7.2-50.8-24.3-50.8-24.3v-73.3c0,0,35.8,17.1,50.8,24.3
	c3.8,1.8,8.2,1.8,12,0l50.8-24.3V344.8z"/>
<path class="st1" d="M1039.3,253l-50.8,24.3c-3.8,1.8-8.2,1.8-12,0c-15-7.2-50.8-24.3-50.8-24.3v-73.3c0,0,35.8,17.1,50.8,24.3
	c3.8,1.8,8.2,1.8,12,0l50.8-24.3V253z"/>
<g id="XMLID_1_">
	<path class="st2" d="M982.4,388.7c-0.2-0.3-0.5-0.6-0.9-0.8l-42.2-19.5c-6.7-3.1-13.4,4.4-9.6,10.7l49.2,81.3
		c0.8,1.4,2.7,1.2,3.4,0c0.7,1.2,2.6,1.3,3.4,0L1035,379c3.8-6.3-2.9-13.8-9.6-10.7l-42.2,19.5C982.9,388.1,982.6,388.3,982.4,388.7
		z"/>
</g>
<path class="st2" d="M1089.9,91.1l-50.7,22.6v40.4l-50.7,24.3c-3.8,1.8-8.2,1.8-12,0c-15-7.2-50.8-24.3-50.8-24.3v-40.4L873,91.1
	L982.6,41L1089.9,91.1z"/>
<polygon class="st2" points="902,125.6 894.5,163.2 909.5,163.2 "/>
<circle class="st2" cx="901.9" cy="129.5" r="5.1"/>
<line class="st3" x1="901.9" y1="126.8" x2="901.9" y2="97.6"/>
<g>
	<path class="st4" d="M199.6,461.7V256h74.9c23,0,40.6,4.2,52.9,12.6c12.3,8.4,18.5,20.3,18.5,35.6c0,11.1-3.8,20.8-11.3,29.1
		c-7.5,8.3-17.1,14.1-28.8,17.4v0.6c14.6,1.8,26.3,7.2,35.1,16.2c8.8,9,13.1,19.9,13.1,32.8c0,18.8-6.7,33.8-20.2,44.8
		c-13.5,11-31.9,16.6-55.2,16.6H199.6z M246,290.1v48.8h20.4c9.6,0,17.1-2.3,22.6-7c5.5-4.6,8.2-11,8.2-19.2
		c0-15.1-11.3-22.7-33.9-22.7H246z M246,373.3v54.2h25.1c10.7,0,19.1-2.5,25.2-7.5c6.1-5,9.1-11.8,9.1-20.4c0-8.2-3-14.7-9-19.4
		c-6-4.7-14.3-7-25-7H246z"/>
	<path class="st4" d="M515.5,401.1h-95.8c1.5,21.3,15,32,40.3,32c16.2,0,30.4-3.8,42.6-11.5v32.7c-13.6,7.3-31.2,10.9-52.9,10.9
		c-23.7,0-42.1-6.6-55.2-19.7c-13.1-13.1-19.7-31.5-19.7-55c0-24.4,7.1-43.7,21.2-58c14.2-14.2,31.6-21.4,52.2-21.4
		c21.4,0,38,6.4,49.7,19.1c11.7,12.7,17.6,30,17.6,51.8V401.1z M473.5,373.3c0-21-8.5-31.6-25.5-31.6c-7.3,0-13.6,3-18.9,9
		c-5.3,6-8.5,13.5-9.7,22.5H473.5z"/>
	<path class="st4" d="M727.8,461.7h-50.5l-14.6-45.8h-73.2L575,461.7h-50.2L599.7,256h54.9L727.8,461.7z M652.1,380.3L630,311.2
		c-1.6-5.2-2.8-11.3-3.4-18.5h-1.1c-0.5,6-1.7,12-3.6,17.9l-22.4,69.7H652.1z"/>
	<path class="st4" d="M890.9,461.7h-45.2V380c0-22.8-8.1-34.1-24.4-34.1c-7.8,0-14.3,3-19.4,9c-5.1,6-7.6,13.7-7.6,23v83.8H749
		V314.8h45.3V338h0.6c10.8-17.9,26.5-26.8,47.2-26.8c32.5,0,48.8,20.2,48.8,60.5V461.7z"/>
	<path class="st4" d="M1218.4,461.7h-45.2V380c0-22.8-8.1-34.1-24.4-34.1c-7.8,0-14.3,3-19.4,9c-5.1,6-7.6,13.7-7.6,23v83.8h-45.3
		V314.8h45.3V338h0.6c10.8-17.9,26.5-26.8,47.2-26.8c32.5,0,48.8,20.2,48.8,60.5V461.7z"/>
	<path class="st4" d="M1343,459.9c-6.7,3.5-16.8,5.3-30.3,5.3c-31.9,0-47.9-16.6-47.9-49.8v-67.3H1241v-33.4h23.8v-31.7l45.2-12.9
		v44.6h33v33.4h-33v59.4c0,15.3,6.1,23,18.2,23c4.8,0,9.7-1.4,14.8-4.2V459.9z"/>
	<path class="st4" d="M1500.5,401.1h-95.8c1.5,21.3,15,32,40.3,32c16.2,0,30.4-3.8,42.6-11.5v32.7c-13.6,7.3-31.2,10.9-52.9,10.9
		c-23.7,0-42.1-6.6-55.2-19.7c-13.1-13.1-19.7-31.5-19.7-55c0-24.4,7.1-43.7,21.2-58c14.2-14.2,31.6-21.4,52.2-21.4
		c21.4,0,38,6.4,49.7,19.1c11.7,12.7,17.6,30,17.6,51.8V401.1z M1458.5,373.3c0-21-8.5-31.6-25.5-31.6c-7.3,0-13.6,3-18.9,9
		c-5.3,6-8.5,13.5-9.7,22.5H1458.5z"/>
	<path class="st4" d="M1623.3,355.7c-5.5-3-11.8-4.4-19.1-4.4c-9.9,0-17.5,3.6-23.1,10.8c-5.5,7.2-8.3,17-8.3,29.5v70.1h-45.3V314.8
		h45.3V342h0.6c7.2-19.9,20.1-29.8,38.7-29.8c4.8,0,8.5,0.6,11.2,1.7V355.7z"/>
	<path class="st4" d="M1786.3,461.7h-45.2V380c0-22.8-8.1-34.1-24.4-34.1c-7.8,0-14.3,3-19.4,9c-5.1,6-7.6,13.7-7.6,23v83.8h-45.3
		V314.8h45.3V338h0.6c10.8-17.9,26.5-26.8,47.2-26.8c32.5,0,48.8,20.2,48.8,60.5V461.7z"/>
</g>
</svg>
