<?xml version="1.0" encoding="utf-8"?>
<!-- Generator: Adobe Illustrator 21.1.0, SVG Export Plug-In . SVG Version: 6.00 Build 0)  -->
<svg version="1.1" id="Layer_1" xmlns="http://www.w3.org/2000/svg" xmlns:xlink="http://www.w3.org/1999/xlink" x="0px" y="0px"
	 viewBox="0 0 2000 2000" style="enable-background:new 0 0 2000 2000;" xml:space="preserve">
<style type="text/css">
	.st0{fill:url(#SVGID_1_);}
	.st1{fill:#FFFFFF;}
</style>
<g>
	<linearGradient id="SVGID_1_" gradientUnits="userSpaceOnUse" x1="297" y1="1025" x2="1703" y2="1025">
		<stop  offset="0" style="stop-color:#AA076B"/>
		<stop  offset="1" style="stop-color:#61045F"/>
	</linearGradient>
	<circle class="st0" cx="1000" cy="1025" r="703"/>
</g>
<path class="st1" d="M1286.8,658c-44.2,0-80.2,36-80.2,80.2c0,13.8,3.5,26.8,9.7,38.2L1085,907.7c-18.1-14.1-40.8-22.6-65.4-22.6
	c-24.7,0-47.3,8.5-65.5,22.6L851.6,805.3c4.7-8,7.6-17.1,7.6-27c0-29.5-24-53.5-53.5-53.5s-53.5,24-53.5,53.5s24,53.5,53.5,53.5
	c9.9,0,19-2.9,27-7.6l102.5,102.5c-14.1,18.1-22.6,40.8-22.6,65.5s8.5,47.3,22.6,65.4L766,1226.8c-14.2-12.9-33.1-20.9-53.8-20.9
	c-44.2,0-80.2,36-80.2,80.2s36,80.2,80.2,80.2s80.2-36,80.2-80.2c0-13.8-3.5-26.8-9.7-38.2l171.4-171.4
	c14.8,11.5,32.6,19.2,52.1,21.6v135.8c-37.9,6.4-66.8,39.3-66.8,79c0,44.2,36,80.2,80.2,80.2s80.2-36,80.2-80.2
	c0-39.6-29-72.6-66.8-79v-135.8c19.5-2.4,37.3-10.1,52.1-21.6l102.5,102.5c-4.7,8-7.6,17.1-7.6,27c0,29.5,24,53.5,53.5,53.5
	s53.5-24,53.5-53.5s-24-53.5-53.5-53.5c-9.9,0-19,2.9-27,7.6l-102.5-102.5c14.1-18.1,22.6-40.8,22.6-65.5s-8.5-47.3-22.6-65.4
	l129.2-129.2c14.2,12.9,33.1,20.9,53.8,20.9c44.2,0,80.2-36,80.2-80.2S1331,658,1286.8,658z M779,778.3c0-14.7,12-26.7,26.7-26.7
	s26.7,12,26.7,26.7s-12,26.7-26.7,26.7S779,793,779,778.3z M712.2,1339.5c-29.5,0-53.5-24-53.5-53.5s24-53.5,53.5-53.5
	s53.5,24,53.5,53.5S741.7,1339.5,712.2,1339.5z M1073,1312.8c0,29.5-24,53.5-53.5,53.5s-53.5-24-53.5-53.5s24-53.5,53.5-53.5
	S1073,1283.3,1073,1312.8z M1019.6,1072.3c-44.2,0-80.2-36-80.2-80.2s36-80.2,80.2-80.2s80.2,36,80.2,80.2
	S1063.8,1072.3,1019.6,1072.3z M1260.1,1205.9c0,14.7-12,26.7-26.7,26.7s-26.7-12-26.7-26.7s12-26.7,26.7-26.7
	S1260.1,1191.2,1260.1,1205.9z M1286.8,791.6c-29.5,0-53.5-24-53.5-53.5s24-53.5,53.5-53.5s53.5,24,53.5,53.5
	S1316.3,791.6,1286.8,791.6z"/>
</svg>
