<?xml version="1.0" encoding="utf-8"?>
<!-- Generator: Adobe Illustrator 21.1.0, SVG Export Plug-In . SVG Version: 6.00 Build 0)  -->
<svg version="1.1" id="Layer_1" xmlns="http://www.w3.org/2000/svg" xmlns:xlink="http://www.w3.org/1999/xlink" x="0px" y="0px"
	 viewBox="0 0 2000 2000" style="enable-background:new 0 0 2000 2000;" xml:space="preserve">
<style type="text/css">
	.st0{fill:url(#SVGID_1_);}
	.st1{display:none;fill:#FFFFFF;}
	.st2{font-family:'MyriadPro-Regular';}
	.st3{font-size:750px;}
	.st4{fill:none;stroke:#FFFFFF;stroke-width:26;stroke-miterlimit:10;}
</style>
<g>
	
		<linearGradient id="SVGID_1_" gradientUnits="userSpaceOnUse" x1="297" y1="1025" x2="1703" y2="1025" gradientTransform="matrix(-0.7071 0.7071 -0.7071 -0.7071 2431.8911 1042.6776)">
		<stop  offset="0" style="stop-color:#2F80ED"/>
		<stop  offset="1" style="stop-color:#1CB5E0"/>
	</linearGradient>
	<circle class="st0" cx="1000" cy="1025" r="703"/>
</g>
<text transform="matrix(1 0 0 1 556 1240)" class="st1 st2 st3">{...}</text>
<g>
	<g>
		<path class="st4" d="M1136.3,999.9c63.6-28.8,73-248.2,35.5-312.8c-49-84.3-281.9-67.4-355.4-7.1c-8.4,29.9-7.6,84.3-7.2,127.5
			h230.8v20.2H809.3c0,0.3-102.7,0.6-102.7,0.6c-177.2,0-173.5,384.8,60.3,384.8c0,0,8.6-85.2,23.6-127.9
			C836.9,953.4,1031.8,1047.3,1136.3,999.9z M894.7,776.3c-26.6,0-48.2-21.6-48.2-48.2c0-26.6,21.6-48.2,48.2-48.2
			c26.7,0,48.2,21.6,48.2,48.2C942.9,754.7,921.3,776.3,894.7,776.3z"/>
		<path class="st4" d="M1225.8,836.4c0,0-6.1,85.3-21.2,127.9c-46.4,131.8-241.2,37.9-345.9,85.3c-63.5,28.8-73.1,248.2-35.5,312.8
			c48.9,84.4,281.8,67.5,355.4,7.1c8.4-29.9,7.6-84.2,7.2-127.4H954.9v-20.2h230.8c0-0.3,113.7-0.6,113.7-0.6
			C1462.8,1221.3,1477.4,836.4,1225.8,836.4z M1092.2,1265c26.6,0,48.2,21.6,48.2,48.2c0,26.6-21.6,48.2-48.2,48.2
			c-26.6,0-48.2-21.6-48.2-48.2C1044,1286.5,1065.5,1265,1092.2,1265z"/>
	</g>
</g>
</svg>
