<?xml version="1.0" encoding="utf-8"?>
<!-- Generator: Adobe Illustrator 21.1.0, SVG Export Plug-In . SVG Version: 6.00 Build 0)  -->
<svg version="1.1" id="Layer_1" xmlns="http://www.w3.org/2000/svg" xmlns:xlink="http://www.w3.org/1999/xlink" x="0px" y="0px"
	 viewBox="0 0 2000 2000" style="enable-background:new 0 0 2000 2000;" xml:space="preserve">
<style type="text/css">
	.st0{fill:url(#SVGID_1_);}
	.st1{fill:#FFFFFF;}
</style>
<g>
	<linearGradient id="SVGID_1_" gradientUnits="userSpaceOnUse" x1="297" y1="1025" x2="1703" y2="1025">
		<stop  offset="0" style="stop-color:#FDC830"/>
		<stop  offset="1" style="stop-color:#F37335"/>
	</linearGradient>
	<circle class="st0" cx="1000" cy="1025" r="703"/>
</g>
<g>
	<path class="st1" d="M577,1005.3c53.3,0,60.8-29.3,60.8-55.5c0-21-3-42-6-63s-6-41.3-6-62.3c0-69,45-98.3,108.8-98.3h15.8v41.3
		h-13.5c-44.3,0-59.3,24-59.3,64.5c0,17.3,2.3,35.3,5.3,53.3c3,18.8,5.3,36.8,5.3,57c0.8,48-20.3,72-54,81v1.5
		c33.8,8.3,54.8,33.8,54,81.8c0,20.3-2.3,39-5.3,57c-3,18.8-5.3,36-5.3,54c0,42,17.3,65.3,59.3,65.3h13.5v41.3h-15.8
		c-62.3,0-108.8-27-108.8-102.8c0-20.3,3-41.3,6-61.5s6-40.5,6-60.8c0-23.3-7.5-55.5-60.8-55.5V1005.3z"/>
	<path class="st1" d="M808,1201c0-27.8,18.8-47.3,45-47.3s44.3,19.5,44.3,47.3c0,27-17.3,47.3-45,47.3C826,1248.3,808,1228,808,1201
		z"/>
	<path class="st1" d="M963.2,1201c0-27.8,18.8-47.3,45-47.3s44.3,19.5,44.3,47.3c0,27-17.3,47.3-45,47.3
		C981.2,1248.3,963.2,1228,963.2,1201z"/>
	<path class="st1" d="M1118.5,1201c0-27.8,18.8-47.3,45-47.3s44.3,19.5,44.3,47.3c0,27-17.3,47.3-45,47.3
		C1136.5,1248.3,1118.5,1228,1118.5,1201z"/>
	<path class="st1" d="M1426.7,1043.5c-53.3,0-60.8,32.3-60.8,55.5c0,20.3,3,40.5,6,60.8s6,41.3,6,61.5
		c0,75.8-47.3,102.8-108.8,102.8h-15.8v-41.3h12.8c42-0.8,60-23.3,60-65.3c0-18-3-35.3-5.3-54c-3-18-6-36.8-6-57
		c0-48,21-73.5,54-81.8v-1.5c-33-9-54-33-54-81c0-20.3,3-38.3,6-57c2.3-18,5.3-36,5.3-53.3c0-40.5-15.8-63.8-59.3-64.5h-13.5v-41.3
		h15c63.8,0,109.5,29.3,109.5,98.3c0,21-3,41.3-6,62.3s-6,42-6,63c0,26.3,7.5,55.5,60.8,55.5V1043.5z"/>
</g>
</svg>
